HIERARCHY
ROOT Hips
{
	OFFSET 0.00000 0.00000 0.00000
	CHANNELS 6 Xposition Yposition Zposition Zrotation Yrotation Xrotation 
	JOINT LHipJoint
	{
		OFFSET 0 0 0
		CHANNELS 3 Zrotation Yrotation Xrotation
		JOINT LeftHip
		{
			OFFSET 2.36090 -1.39315 1.24752
			CHANNELS 3 Zrotation Yrotation Xrotation
			JOINT LeftKnee
			{
				OFFSET 2.06810 -5.68207 0.00000
				CHANNELS 3 Zrotation Yrotation Xrotation
				JOINT LeftAnkle
				{
					OFFSET 2.46631 -6.77613 0.00000
					CHANNELS 3 Zrotation Yrotation Xrotation
					JOINT LeftToe
					{
						OFFSET 0.26031 -0.71520 1.99545
						CHANNELS 3 Zrotation Yrotation Xrotation
						End Site
						{
							OFFSET 0.00000 -0.00000 1.05957
						}
					}
				}
			}
		}
	}
	JOINT RHipJoint
	{
		OFFSET 0 0 0
		CHANNELS 3 Zrotation Yrotation Xrotation
		JOINT RightHip
		{
			OFFSET -2.25243 -1.39315 1.24752
			CHANNELS 3 Zrotation Yrotation Xrotation
			JOINT RightKnee
			{
				OFFSET -2.17343 -5.97145 0.00000
				CHANNELS 3 Zrotation Yrotation Xrotation
				JOINT RightAnkle
				{
					OFFSET -2.52372 -6.93386 0.00000
					CHANNELS 3 Zrotation Yrotation Xrotation
					JOINT RightToe
					{
						OFFSET -0.22538 -0.61923 2.11447
						CHANNELS 3 Zrotation Yrotation Xrotation
						End Site
						{
							OFFSET -0.00000 -0.00000 1.10506
						}
					}
				}
			}
		}
	}
	JOINT lowerback
	{
		OFFSET 0 0 0
		CHANNELS 3 Zrotation Yrotation Xrotation
		JOINT Chest
		{
			OFFSET 0.01594 2.13103 0.08007
			CHANNELS 3 Zrotation Yrotation Xrotation
			JOINT Chest2
			{
				OFFSET 0.01393 2.09723 0.18338
				CHANNELS 3 Zrotation Yrotation Xrotation
				JOINT lowerneck
				{
					OFFSET 0 0 0
					CHANNELS 3 Zrotation Yrotation Xrotation
					JOINT Neck
					{
						OFFSET 0.05351 1.38915 0.32494
						CHANNELS 3 Zrotation Yrotation Xrotation
						JOINT Head
						{
							OFFSET 0.00711 1.45992 -0.21666
							CHANNELS 3 Zrotation Yrotation Xrotation
							End Site
							{
								OFFSET -0.00433 1.47702 -0.11056
							}
						}
					}
				}
				JOINT LeftCollar
				{
					OFFSET 0 0 0
					CHANNELS 3 Zrotation Yrotation Xrotation
					JOINT LeftShoulder
					{
						OFFSET 2.87198 0.92249 0.11132
CHANNELS 3 Zrotation Xrotation Yrotation
						JOINT LeftElbow
						{
OFFSET 0 -5.527310 0.000000
CHANNELS 3 Zrotation Xrotation Yrotation
							JOINT LeftWrist
							{
OFFSET 0 -3.110590 0.000000
CHANNELS 3 Zrotation Xrotation Yrotation
								JOINT lhand
								{
									OFFSET 0 0 0
CHANNELS 3 Zrotation Xrotation Yrotation
									JOINT LFingers
									{
OFFSET 0 -0.419630 0.000000
CHANNELS 3 Zrotation Xrotation Yrotation
										End Site
										{
OFFSET 0 -0.338310 0.000000
										}
									}
								}
								JOINT LThumb
								{
OFFSET 0 0.000000 0.000000
CHANNELS 3 Zrotation Xrotation Yrotation
									End Site
									{
OFFSET 0 -0.343480 0.343480
									}
								}
							}
						}
					}
				}
				JOINT RightCollar
				{
					OFFSET 0 0 0
					CHANNELS 3 Zrotation Yrotation Xrotation
					JOINT RightShoulder
					{
						OFFSET -2.94710 0.68072 0.32187
CHANNELS 3 Zrotation Xrotation Yrotation
						JOINT RightElbow
						{
OFFSET 0 -5.253960 -0.000000
CHANNELS 3 Zrotation Xrotation Yrotation
							JOINT RightWrist
							{
OFFSET 0 -3.105670 0.000000
CHANNELS 3 Zrotation Xrotation Yrotation
								JOINT rhand
								{
									OFFSET 0 0 0
CHANNELS 3 Zrotation Xrotation Yrotation
									JOINT RFingers
									{
OFFSET 0 -0.498680 0.000000
CHANNELS 3 Zrotation Xrotation Yrotation
										End Site
										{
OFFSET 0 -0.402040 0.000000
										}
									}
								}
								JOINT RThumb
								{
OFFSET 0 0.000000 0.000000
CHANNELS 3 Zrotation Xrotation Yrotation
									End Site
									{
OFFSET 0 -0.408180 0.408180
									}
								}
							}
						}
					}
				}
			}
		}
	}
}
MOTION
Frames: 6
Frame Time: .0083333
7.5679 2.2887 23.6414 -155.5770 -37.8298 2.8411 0.0000 0.0000 0.0000 -7.8345 -26.8122 74.6613 0.0000 -0.0000 -0.0000 2.4444 2.1484 29.0316 3.8312 11.9323 35.4928 0.0000 0.0000 0.0000 -14.0324 -43.3228 28.1954 -26.6886 -18.8917 109.9100 2.7016 27.6424 12.7198 -0.2448 -3.1840 8.7915 17.6311 -19.1227 49.7796 4.5809 -18.3467 10.0106 5.8864 -11.0085 -8.6596 5.7016 3.6827 -27.5216 -1.7228 3.3484 28.7167 -0.9989 1.7554 14.6745 0.0000 0.0000 0.0000 20.9978 19.0795 -39.8648 104.4846 -59.1922 72.51 -18.5583 -38.9111 -2.0612 0.0 0.0 0.0 -7.1250 0.0 0.0 -34.1006 30.3424 -14.6824 0.0000 0.0000 0.0000 -30.5458 8.9316 33.0196 -116.1454 -57.2525 -82.4337 21.0625 -13.221 12.361 0.0 0.0 0.0 7.1250 0.0 -0.0 39.9965 38.8691 7.5434
7.5828 2.2872 23.6483 -155.5560 -37.7933 2.8413 0.0000 0.0000 0.0000 -7.8629 -26.8269 74.6427 0.0000 -0.0000 -0.0000 2.4557 2.1005 29.1126 3.8495 11.9574 35.5816 0.0000 0.0000 0.0000 -15.2734 -43.0458 28.7527 -26.9651 -18.7947 110.7661 2.8804 28.4341 12.9436 -0.2688 -3.3354 9.2139 17.6905 -19.1232 49.6872 4.5757 -18.3395 10.0582 5.8349 -11.0049 -8.6018 5.7587 3.6920 -27.5618 -1.7867 3.3551 28.6375 -1.0325 1.7553 14.6507 0.0000 -0.0000 0.0000 20.9701 18.9466 -39.8944 104.3086 -59.2121 72.3588 -18.523 -38.8965 -2.0356 0.0 0.0 0.0 -7.1250 0.0 0.0 -34.0694 30.3234 -14.6826 0.0000 -0.0000 0.0000 -30.4836 8.8916 32.8669 -116.1693 -57.2472 -82.4538 21.1287 -13.255 12.3609 0.0 0.0 0.0 7.1250 0.0 -0.0 40.0410 38.8609 7.5668
7.5970 2.2857 23.6549 -155.5340 -37.7487 2.8379 0.0000 0.0000 0.0000 -7.8940 -26.8563 74.6214 0.0000 -0.0000 -0.0000 2.4592 2.1308 29.1263 3.8808 12.0001 35.7325 0.0000 0.0000 0.0000 -16.5026 -42.7710 29.3341 -27.2204 -18.7011 111.5605 3.0677 29.2294 13.1578 -0.2718 -3.3532 9.2638 17.7423 -19.1301 49.6096 4.5759 -18.3415 10.0946 5.8001 -11.0065 -8.5555 5.7890 3.7040 -27.5692 -1.8267 3.3722 28.5284 -1.0498 1.7605 14.6061 -0.0000 0.0000 0.0000 20.9587 18.8072 -39.9217 104.1325 -59.2317 72.2076 -18.5112 -38.8959 -1.9862 0.0 0.0 0.0 -7.1250 0.0 0.0 -34.0453 30.2813 -14.7109 -0.0000 0.0000 0.0000 -30.4574 8.8394 32.7656 -116.1829 -57.2441 -82.4653 21.0826 -13.2635 12.3652 0.0 0.0 0.0 7.1250 0.0 -0.0 40.0121 38.8701 7.5466
7.6112 2.2839 23.6610 -155.3700 -37.7635 2.9253 0.0000 0.0000 0.0000 -7.9500 -26.8388 74.4085 0.0000 0.0000 0.0000 2.4578 1.9495 29.1629 3.8538 11.9632 35.6020 0.0000 0.0000 0.0000 -17.5093 -42.5227 29.7211 -27.4411 -18.6170 112.2503 3.2578 30.0002 13.2153 -0.2643 -3.3074 9.1357 17.6234 -19.0390 49.4249 4.6363 -18.3146 10.0855 5.8684 -10.9893 -8.5325 5.7438 3.7247 -27.5579 -1.8770 3.4427 28.4476 -1.0482 1.7779 14.5710 0.0000 0.0000 0.0000 20.7922 18.759 -39.9114 103.9882 -59.2476 72.0835 -18.5291 -38.8719 -2.0076 0.0 0.0 0.0 -7.1250 0.0 0.0 -34.0640 30.2984 -14.705 0.0000 0.0000 0.0000 -30.5465 8.8146 32.7183 -116.2325 -57.233 -82.5069 21.1327 -13.3277 12.4081 0.0 0.0 0.0 7.1250 0.0 -0.0 40.0674 38.8996 7.525
7.6252 2.2824 23.6671 -155.2460 -37.7603 2.9877 0.0000 0.0000 0.0000 -7.9980 -26.8379 74.2487 0.0000 0.0000 0.0000 2.4584 1.8438 29.1930 3.8509 11.9593 35.5880 0.0000 0.0000 0.0000 -18.6080 -42.2394 30.1770 -27.6643 -18.5290 112.9510 3.4557 30.7758 13.3675 -0.2661 -3.3187 9.1673 17.5649 -18.9778 49.2541 4.6663 -18.2962 10.0994 5.8856 -10.9759 -8.4945 5.7386 3.7401 -27.5559 -1.9251 3.4847 28.3602 -1.0580 1.7883 14.5346 -0.0000 0.0000 0.0000 20.7012 18.6737 -39.9271 103.8285 -59.265 71.9462 -18.5322 -38.8652 -2.0072 0.0 0.0 0.0 -7.1250 0.0 0.0 -34.0658 30.2977 -14.7068 -0.0000 0.0000 0.0000 -30.5782 8.7834 32.6434 -116.2666 -57.2254 -82.5356 21.1507 -13.3702 12.4365 0.0 0.0 0.0 7.1250 0.0 -0.0 40.0937 38.921 7.5053
7.6391 2.2812 23.6729 -155.0880 -37.7680 3.0715 0.0000 0.0000 0.0000 -8.0521 -26.8329 74.0412 0.0000 0.0000 0.0000 2.4570 1.7191 29.2162 3.8435 11.9492 35.5526 0.0000 0.0000 0.0000 -19.6565 -41.9573 30.5934 -27.8707 -18.4448 113.6019 3.6563 31.5324 13.5218 -0.2670 -3.3237 9.1814 17.4809 -18.8979 49.0385 4.6934 -18.2731 10.1135 5.9008 -10.9570 -8.4532 5.7338 3.7540 -27.5483 -1.9697 3.5235 28.2752 -1.0672 1.7978 14.4981 0.0000 -0.0000 0.0000 20.6192 18.5942 -39.9534 103.6703 -59.282 71.8102 -18.5405 -38.8666 -2.0162 0.0 0.0 0.0 -7.1250 0.0 0.0 -34.0740 30.3047 -14.7047 0.0000 -0.0000 0.0000 -30.6098 8.7599 32.5741 -116.3041 -57.217 -82.5672 21.1643 -13.4131 12.4707 0.0 0.0 0.0 7.1250 0.0 -0.0 40.1200 38.9476 7.4787
